<svg id="Layer_1" data-name="Layer 1" xmlns="http://www.w3.org/2000/svg" viewBox="0 0 371.33 567.83"><defs><style>.cls-1{fill:#32475b;}</style></defs><title>handphone</title><path class="cls-1" d="M73.7,508l-11.5-1.3a4.58,4.58,0,0,1-4-5l1.2-10.8a4.58,4.58,0,0,1,5-4l11.5,1.3a4.58,4.58,0,0,1,4,5L78.7,504A4.56,4.56,0,0,1,73.7,508Z"/><path class="cls-1" d="M159.6,517.92l-.7-.1a9.92,9.92,0,0,1-8.7-11h0a9.92,9.92,0,0,1,11-8.7l.7.1a9.92,9.92,0,0,1,8.7,11h0A9.92,9.92,0,0,1,159.6,517.92Z"/><path class="cls-1" d="M255.1,528.22l-12.6-7.9a3.35,3.35,0,0,1,.7-6.1l14.1-4.9a3.57,3.57,0,0,1,4.8,3.7l-1.5,12.8A3.56,3.56,0,0,1,255.1,528.22Z"/><path class="cls-1" d="M247.75,563.77a77.41,77.41,0,0,1-8.7-.49h0L70.74,544A76,76,0,0,1,3.85,459.65L48.44,71.47A76,76,0,0,1,132.77,4.58L301.05,23.87a76,76,0,0,1,66.89,84.33L323.35,496.38A76.21,76.21,0,0,1,247.75,563.77Zm-7-15.4a61.17,61.17,0,0,0,67.69-53.7L353,106.47a61,61,0,0,0-53.69-67.69L131,19.48A61,61,0,0,0,63.35,73.17L18.75,461.38a61,61,0,0,0,53.7,67.69Z"/><path class="cls-1" d="M262.7,58.62,162.5,47.12a21.14,21.14,0,0,1-18.6-23.4l1.9-16.4L288,23.62,286.1,40A21.14,21.14,0,0,1,262.7,58.62Z"/><rect class="cls-1" x="111.7" y="219.72" width="36.2" height="36.2"/><rect class="cls-1" x="223.9" y="219.72" width="36.2" height="36.2"/><rect class="cls-1" x="148.3" y="329.12" width="28.5" height="28.5"/><rect class="cls-1" x="171.6" y="343.22" width="28.5" height="28.5"/><rect class="cls-1" x="194.6" y="329.12" width="28.5" height="28.5"/><rect class="cls-1" x="127.5" y="319.92" width="116.7" height="23.5"/></svg>