<svg width="586" height="389" viewBox="0 0 586 389" fill="none" xmlns="http://www.w3.org/2000/svg">
<g clip-path="url(#clip0_918_22)">
<path d="M112.03 329.28C133.19 310.72 135.12 280.41 131.26 253.77C130.62 249.33 130.59 244.57 128.03 240.89C125.47 237.21 120.23 235.08 116.44 237.4C113.3 239.32 112.28 243.34 110.78 246.73C108.77 251.253 105.526 255.117 101.42 257.88C98.74 259.67 95.32 260.96 92.34 259.72C88.26 258.02 87.22 252.72 86.76 248.31L84.18 223.48C83.71 219.04 83.23 214.48 81.38 210.48C79.53 206.48 76.05 202.84 71.7 202.13C67.35 201.42 62.4 204.42 61.98 208.86C61.81 210.71 62.39 212.55 62.47 214.4C62.55 216.25 61.91 218.4 60.22 219.1C58.53 219.8 56.59 218.75 55.12 217.6C50.05 213.6 46.3 208.19 42.76 202.77C39.22 197.35 35.76 191.77 31.06 187.36C26.36 182.95 20.19 179.69 13.79 180.03C7.38999 180.37 1.04998 185.03 0.129982 191.46C-0.790018 197.89 3.56998 203.84 8.12998 208.46C14.8483 215.323 22.5245 221.177 30.92 225.84C32.43 226.68 34.07 227.59 34.78 229.17C36.07 232.03 33.59 235.27 30.78 236.57C27.59 238.04 23.97 238.09 20.55 238.88C17.13 239.67 13.55 241.61 12.55 245.02C11.24 249.76 15.55 254.1 19.63 256.8C27.799 262.212 36.8372 266.18 46.35 268.53C49.75 269.36 53.3 270.03 56.18 272.04C59.06 274.05 61.1 277.85 59.85 281.15C58.6 284.45 54.63 285.91 51.14 285.65C47.65 285.39 44.39 283.88 40.99 283.01C34.64 281.38 26.81 282.67 23.48 288.37C21.3 292.12 21.6 296.97 23.36 300.96C25.12 304.95 28.14 308.21 31.3 311.18C42.3 321.57 55.87 329.43 70.56 332.77C85.25 336.11 98.56 336 112.01 329.31" fill="#EBEBEB"/>
<path d="M114.55 349.06C111.947 336.799 108.17 324.817 103.27 313.28C97.2207 299.208 90.3728 285.492 82.76 272.2C80.76 268.66 78.7833 265.163 76.83 261.71C74.83 258.27 72.94 254.86 70.83 251.64C66.7888 245.466 62.4053 239.524 57.7 233.84C53.25 228.38 48.83 223.36 44.7 218.69C40.57 214.02 36.53 209.77 32.7 206.04C26.7481 200.113 20.3309 194.672 13.51 189.77C11.1 188.03 9.19 186.77 7.88 185.89L6.39 184.89C6.22503 184.773 6.05116 184.67 5.87 184.58C6.01436 184.721 6.17173 184.848 6.34 184.96L7.79 185.96C9.07 186.86 10.95 188.18 13.32 189.96C20.0555 194.954 26.4067 200.446 32.32 206.39C36.07 210.14 40.02 214.39 44.17 219.08C48.32 223.77 52.71 228.79 57.17 234.25C61.8199 239.932 66.1596 245.86 70.17 252.01C72.26 255.22 74.17 258.6 76.17 262.01L82.03 272.62C89.6367 285.891 96.4909 299.579 102.56 313.62C107.485 325.089 111.325 336.995 114.03 349.18" fill="#E0E0E0"/>
<path d="M70.6 251.62C70.7403 250.983 70.814 250.333 70.82 249.68C70.92 248.43 71 246.62 71.07 244.37C71.21 239.88 71.19 233.68 71.15 226.84C71.11 220 71.15 213.84 71.38 209.33C71.48 207.09 71.57 205.28 71.66 204.03C71.7357 203.366 71.7357 202.695 71.66 202.03C71.474 202.656 71.3567 203.299 71.31 203.95C71.13 205.19 70.94 207 70.77 209.24C70.41 213.72 70.25 219.94 70.3 226.79C70.35 233.64 70.4199 239.64 70.4599 244.31C70.4599 246.42 70.4599 248.2 70.4599 249.62C70.428 250.29 70.475 250.961 70.6 251.62Z" fill="#E0E0E0"/>
<path d="M12.36 247.261C13.125 247.332 13.895 247.332 14.66 247.261C16.14 247.261 18.28 247.171 20.92 247.181C26.21 247.181 33.52 247.411 41.57 248.021C49.62 248.631 56.88 249.541 62.12 250.331C64.74 250.701 66.85 251.061 68.31 251.331C69.0613 251.508 69.8285 251.608 70.6 251.631C69.8762 251.361 69.13 251.157 68.37 251.021C66.92 250.681 64.82 250.231 62.21 249.771C56.98 248.841 49.7 247.861 41.63 247.231C34.7415 246.675 27.8292 246.471 20.92 246.621C18.26 246.691 16.12 246.831 14.64 246.961C13.8726 246.993 13.1097 247.094 12.36 247.261Z" fill="#E0E0E0"/>
<path d="M102.45 312.31C102.583 312.077 102.687 311.829 102.76 311.57C102.97 310.98 103.21 310.26 103.51 309.39C104.15 307.51 105.01 304.75 106.02 301.33C108.02 294.49 110.57 284.95 113.19 274.39C115.81 263.83 118.24 254.27 120.13 247.39C121.05 244.04 121.82 241.3 122.38 239.25C122.63 238.37 122.82 237.63 122.99 237.03C123.075 236.775 123.126 236.509 123.14 236.24C123.012 236.476 122.908 236.724 122.83 236.98C122.63 237.57 122.38 238.29 122.08 239.15C121.44 241.04 120.58 243.8 119.57 247.22C117.57 254.06 115.03 263.6 112.4 274.17C109.77 284.74 107.35 294.28 105.47 301.17C104.54 304.52 103.78 307.27 103.21 309.31L102.61 311.53C102.521 311.782 102.467 312.044 102.45 312.31Z" fill="#E0E0E0"/>
<path d="M23.92 296.231C24.1715 296.343 24.4373 296.421 24.71 296.461L26.99 296.951L35.4 298.691C42.51 300.161 52.29 302.301 63.1 304.691C73.91 307.081 83.73 309.121 90.86 310.451C94.43 311.111 97.32 311.611 99.32 311.921L101.63 312.261C101.9 312.313 102.175 312.337 102.45 312.331C102.198 312.218 101.933 312.141 101.66 312.101L99.38 311.601L90.97 309.871C83.87 308.401 74.08 306.261 63.27 303.871C52.46 301.481 42.65 299.441 35.51 298.121C31.95 297.461 29.06 296.951 27.05 296.651L24.74 296.301C24.4715 296.238 24.1953 296.214 23.92 296.231Z" fill="#E0E0E0"/>
<path d="M121.8 0L181.86 38.11L157.32 79.83L95.79 39.34L121.8 0Z" fill="#EBEBEB"/>
<path d="M181.86 38.1105C181.79 38.1411 181.716 38.1614 181.64 38.1705L180.97 38.3005L178.41 38.7705L168.97 40.3705L137.61 45.5205H137.39L137.32 45.3105C137.16 44.8605 136.99 44.3105 136.82 43.8705C132.63 31.7705 128.82 20.8705 126.09 12.8705C124.76 8.93047 123.67 5.72047 122.9 3.46047C122.54 2.37047 122.26 1.46047 122.06 0.890469C121.97 0.620469 121.91 0.390468 121.85 0.210468C121.839 0.134182 121.839 0.0567547 121.85 -0.0195312C121.888 0.0517194 121.921 0.125188 121.95 0.20047L122.21 0.850468C122.43 1.47047 122.75 2.32047 123.14 3.39047C123.95 5.64047 125.09 8.83047 126.49 12.7505C129.28 20.7505 133.12 31.6405 137.36 43.7505L137.86 45.2005L137.57 45.0305L168.96 40.0305L178.38 38.6205L180.96 38.2505L181.63 38.1705C181.702 38.1348 181.78 38.1144 181.86 38.1105Z" fill="#E0E0E0"/>
<path d="M95.79 39.3403C95.79 39.2003 103.9 37.0503 113.99 34.5203C124.08 31.9903 132.29 30.0703 132.32 30.2103C132.35 30.3503 124.21 32.5103 114.12 35.0303C104.03 37.5503 95.82 39.4803 95.79 39.3403Z" fill="#E0E0E0"/>
<path d="M157.32 79.8307C157.18 79.8307 155.8 71.7307 154.24 61.6907C152.68 51.6507 151.54 43.4907 151.68 43.4707C151.82 43.4507 153.2 51.5707 154.76 61.6107C156.32 71.6507 157.46 79.8008 157.32 79.8307Z" fill="#E0E0E0"/>
<path d="M520.12 114.14L577.64 104.79L585.32 143.69L525.61 152.39L520.12 114.14Z" fill="#F5F5F5"/>
<path d="M577.64 104.79C577.516 105.006 577.372 105.21 577.21 105.4L575.9 107.08C574.72 108.62 573.03 110.62 571.03 113.21L554.64 133.44L554.5 133.61L554.31 133.51L553.21 132.9L529.78 119.73L522.7 115.73L520.77 114.62C520.543 114.492 520.326 114.349 520.12 114.19C520.361 114.282 520.595 114.393 520.82 114.52L522.82 115.52L529.98 119.42L553.49 132.42L554.58 133.03L554.25 133.1L570.77 112.96L575.77 106.96C576.35 106.293 576.81 105.753 577.15 105.34C577.299 105.145 577.463 104.961 577.64 104.79Z" fill="#E0E0E0"/>
<path d="M525.61 152.39C525.49 152.31 529.29 146.54 534.1 139.51C538.91 132.48 542.89 126.83 543.01 126.92C543.13 127.01 539.33 132.76 534.53 139.8C529.73 146.84 525.73 152.47 525.61 152.39Z" fill="#E0E0E0"/>
<path d="M585.32 143.691C585.23 143.801 579.95 139.591 573.53 134.291C567.11 128.991 562.03 124.621 562.08 124.501C562.13 124.381 567.45 128.591 573.87 133.891C580.29 139.191 585.41 143.621 585.32 143.691Z" fill="#E0E0E0"/>
<path d="M360.11 66.2702L458.46 39.9102L478.63 106.19L376.36 131.79L360.11 66.2702Z" fill="#455A64"/>
<path d="M376.36 131.79C376.23 131.73 381.65 121.54 388.45 109.05C395.25 96.5601 400.87 86.4901 401 86.5501C401.13 86.6101 395.71 96.8001 388.91 109.3C382.11 121.8 376.49 131.86 376.36 131.79Z" fill="#263238"/>
<path d="M478.64 106.19C478.56 106.31 468.64 99.83 456.54 91.72C444.44 83.61 434.66 76.94 434.74 76.82C434.82 76.7 444.74 83.17 456.83 91.29C468.92 99.41 478.72 106.07 478.64 106.19Z" fill="#263238"/>
<path d="M360.11 66.2702C360.223 66.3056 360.333 66.3491 360.44 66.4002L361.38 66.8402L364.96 68.5702L378.12 75.0002L421.42 96.4002L421.95 96.6601L421.61 96.7502L447.61 56.4802C450.94 51.3702 453.61 47.2202 455.52 44.3302L457.69 41.0402L458.27 40.1902C458.33 40.09 458.401 39.9962 458.48 39.9102C458.431 40.0176 458.374 40.1213 458.31 40.2202L457.78 41.1002L455.69 44.4402L447.92 56.6802L422.03 97.0302L421.91 97.2302L421.7 97.1202L421.17 96.8602L377.93 75.3302L364.85 68.7502L361.31 66.9302L360.39 66.4502C360.29 66.4016 360.196 66.3412 360.11 66.2702Z" fill="#263238"/>
<path d="M20.84 94.0498L117.35 103.7L113 169.56L13.25 157.91L20.84 94.0498Z" fill="#455A64"/>
<path d="M13.25 157.91C13.15 157.8 21.4 150.55 31.67 141.71C41.94 132.87 50.35 125.79 50.44 125.9C50.53 126.01 42.29 133.26 32.01 142.1C21.73 150.94 13.34 158.02 13.25 157.91Z" fill="#263238"/>
<path d="M113.03 169.55C112.92 169.64 106.28 160.55 98.21 149.22C90.14 137.89 83.7 128.67 83.81 128.59C83.92 128.51 90.57 137.59 98.64 148.92C106.71 160.25 113.12 169.47 113.03 169.55Z" fill="#263238"/>
<path d="M20.84 94.0498C20.84 94.0498 20.93 94.1198 21.09 94.2798L21.78 94.9798L24.4 97.7298L33.95 107.89L65.33 141.54L65.71 141.95H65.37L102.08 114.83L113.23 106.62L116.23 104.43L117.03 103.87C117.115 103.798 117.21 103.738 117.31 103.69C117.31 103.69 117.23 103.77 117.06 103.91L116.29 104.51L113.29 106.79C110.65 108.79 106.89 111.59 102.29 115.08L65.67 142.33L65.48 142.47L65.32 142.3L64.94 141.89L33.67 108.13L24.24 97.8598L21.69 95.0398L21.04 94.2998C20.9667 94.2219 20.8998 94.1383 20.84 94.0498Z" fill="#263238"/>
<path d="M571.89 193.25C571.89 193.25 563.23 187.63 552.89 208.32C542.55 229.01 538.68 240.92 538.68 240.92C538.68 240.92 535.94 245.26 532.95 242.46C529.96 239.66 525.83 231.7 520.81 233.18C515.59 234.72 513.92 240.57 514.99 249.13C516.06 257.69 517.71 276.54 517.85 278.25C517.99 279.96 517.05 282.4 514.71 280.82C512.37 279.24 498.85 264.44 492.21 271.27C485.57 278.1 492.47 301.47 493.21 304.04C493.95 306.61 493.42 307.72 492.21 308.36C491 309 486.92 303.61 482.9 299.55C478.88 295.49 473.52 291.55 470.02 295.77C466.52 299.99 465.53 317.62 482.5 346.03L491.22 358.68L506.62 357.68C539.46 353.56 552.71 341.96 553.92 336.58C555.13 331.2 548.67 329.42 543 328.75C537.33 328.08 530.57 328.2 530.33 326.84C530.09 325.48 530.66 324.41 533.12 323.38C535.58 322.35 558.24 313.38 559.54 303.97C560.84 294.56 540.85 292.97 538.17 292.11C535.49 291.25 536.86 288.98 538.26 288.06C539.66 287.14 555.57 276.82 562.97 272.39C570.37 267.96 573.97 263.05 571.97 257.99C570.05 253.12 561.23 254.77 557.18 254.13C553.13 253.49 554.87 248.67 554.87 248.67C554.87 248.67 561.87 238.28 571.87 217.4C581.87 196.52 571.79 193.13 571.79 193.13" fill="#2AAEFF"/>
<path d="M562.6 211.76C562.548 211.913 562.488 212.063 562.42 212.21L561.83 213.51L559.52 218.46C557.52 222.76 554.52 228.97 550.86 236.62C543.5 251.92 533.14 272.97 521.63 296.19C510.12 319.41 499.71 340.44 492.26 355.7C488.55 363.31 485.55 369.49 483.46 373.78C482.46 375.89 481.62 377.55 481.06 378.69L480.42 379.96L480.19 380.39C480.242 380.237 480.302 380.086 480.37 379.94L480.96 378.65L483.27 373.65C485.27 369.35 488.27 363.15 491.93 355.5C499.29 340.19 509.65 319.14 521.17 295.92C532.69 272.7 543.08 251.68 550.53 236.42L559.34 218.33L561.74 213.42L562.37 212.15L562.6 211.76Z" fill="#263238"/>
<path d="M526.14 244.561C526.319 244.875 526.457 245.211 526.55 245.561C526.78 246.241 527.08 247.221 527.44 248.451C528.16 250.901 529.07 254.311 530 258.091C530.93 261.871 531.71 265.181 532.33 267.781C532.62 268.931 532.86 269.911 533.05 270.711C533.175 271.062 533.249 271.429 533.27 271.801C533.096 271.484 532.959 271.148 532.86 270.801C532.63 270.131 532.33 269.141 531.98 267.911C531.28 265.451 530.42 262.031 529.49 258.251C528.56 254.471 527.73 251.181 527.09 248.581C526.8 247.431 526.55 246.461 526.35 245.661C526.238 245.303 526.167 244.934 526.14 244.561Z" fill="#263238"/>
<path d="M534.68 272.101C534.68 271.961 541.59 269.781 550.2 267.231C558.81 264.681 565.82 262.721 565.86 262.861C565.9 263.001 558.95 265.181 550.34 267.731C541.73 270.281 534.72 272.241 534.68 272.101Z" fill="#263238"/>
<path d="M515.39 306.96C515.766 306.89 516.149 306.866 516.53 306.89H519.61C522.21 306.89 525.81 306.83 529.77 306.65C533.73 306.47 537.32 306.18 539.91 305.96L542.99 305.7C543.366 305.659 543.745 305.659 544.12 305.7C543.762 305.828 543.389 305.909 543.01 305.94C542.29 306.06 541.25 306.21 539.95 306.37C537.36 306.69 533.77 307.03 529.8 307.21C525.83 307.39 522.21 307.38 519.61 307.3C518.3 307.3 517.25 307.21 516.52 307.16C516.137 307.134 515.758 307.067 515.39 306.96Z" fill="#263238"/>
<path d="M502.19 283.75C502.429 284.006 502.634 284.292 502.8 284.6C503.17 285.16 503.69 285.99 504.31 287.02C505.57 289.07 507.31 291.92 509.14 295.09C510.97 298.26 512.65 301.09 513.83 303.24L515.2 305.74C515.382 306.039 515.53 306.358 515.64 306.69C515.396 306.436 515.187 306.15 515.02 305.84C514.65 305.28 514.14 304.45 513.51 303.43C512.25 301.38 510.51 298.52 508.69 295.35C506.87 292.18 505.17 289.3 504 287.2C503.41 286.15 502.94 285.3 502.63 284.7C502.433 284.409 502.285 284.088 502.19 283.75Z" fill="#263238"/>
<path d="M481.25 312.36C481.542 312.697 481.8 313.063 482.02 313.45L484.02 316.55C485.65 319.17 487.86 322.81 490.28 326.84C492.7 330.87 494.87 334.55 496.41 337.22C497.13 338.5 497.74 339.56 498.22 340.4C498.456 340.781 498.657 341.183 498.82 341.6C498.521 341.263 498.26 340.894 498.04 340.5L496.03 337.41C494.4 334.79 492.18 331.15 489.76 327.11C487.34 323.07 485.18 319.4 483.64 316.73L481.83 313.56C481.596 313.181 481.401 312.779 481.25 312.36Z" fill="#263238"/>
<path d="M498.55 340.78C499.038 340.687 499.533 340.634 500.03 340.62L503.94 340.45C507.24 340.31 511.79 340.1 516.82 339.73C521.85 339.36 526.38 338.91 529.67 338.57L533.56 338.17C534.032 338.087 534.511 338.056 534.99 338.08C534.532 338.215 534.064 338.312 533.59 338.37C532.67 338.52 531.35 338.72 529.71 338.93C526.43 339.37 521.89 339.88 516.86 340.25C511.83 340.62 507.26 340.77 503.95 340.82C502.3 340.82 500.95 340.82 500.03 340.82C499.537 340.863 499.04 340.85 498.55 340.78Z" fill="#263238"/>
<path d="M69.03 330.04C64.27 330.69 60.03 333.35 56.56 336.71C54.72 338.52 52.98 340.71 52.66 343.23C52.34 345.75 54.01 348.73 56.58 348.93C58.1285 348.912 59.6204 348.345 60.79 347.33C63.79 345.16 66.79 342.27 70.51 342.39C72.63 342.46 74.76 343.55 76.78 342.9C77.7518 342.518 78.5715 341.829 79.1134 340.936C79.6553 340.044 79.8895 338.998 79.78 337.96C79.4921 335.884 78.4183 333.998 76.78 332.69C75.7793 331.682 74.5593 330.918 73.2151 330.458C71.8708 329.999 70.4386 329.856 69.03 330.04Z" fill="#2AAEFF"/>
<g opacity="0.3">
<path d="M69.03 330.04C64.27 330.69 60.03 333.35 56.56 336.71C54.72 338.52 52.98 340.71 52.66 343.23C52.34 345.75 54.01 348.73 56.58 348.93C58.1285 348.912 59.6204 348.345 60.79 347.33C63.79 345.16 66.79 342.27 70.51 342.39C72.63 342.46 74.76 343.55 76.78 342.9C77.7518 342.518 78.5715 341.829 79.1134 340.936C79.6553 340.044 79.8895 338.998 79.78 337.96C79.4921 335.884 78.4183 333.998 76.78 332.69C75.7793 331.682 74.5593 330.918 73.2151 330.458C71.8708 329.999 70.4386 329.856 69.03 330.04Z" fill="black"/>
</g>
<path d="M66.21 308.97C66.21 313.52 61.35 315.42 58.12 314.91C54.89 314.4 52.18 312.27 49.63 310.22C43.81 305.52 37.77 300.55 34.83 293.67C33.8565 291.644 33.4619 289.387 33.69 287.15C33.8212 286.037 34.2408 284.977 34.9073 284.076C35.5737 283.174 36.464 282.462 37.49 282.01C39.98 281.1 42.72 282.24 45.03 283.53C51.8453 287.344 57.7219 292.633 62.23 299.01C64.33 302.01 66.17 305.34 66.23 309.01" fill="#2AAEFF"/>
<g opacity="0.3">
<path d="M66.21 308.97C66.21 313.52 61.35 315.42 58.12 314.91C54.89 314.4 52.18 312.27 49.63 310.22C43.81 305.52 37.77 300.55 34.83 293.67C33.8565 291.644 33.4619 289.387 33.69 287.15C33.8212 286.037 34.2408 284.977 34.9073 284.076C35.5737 283.174 36.464 282.462 37.49 282.01C39.98 281.1 42.72 282.24 45.03 283.53C51.8453 287.344 57.7219 292.633 62.23 299.01C64.33 302.01 66.17 305.34 66.23 309.01" fill="white"/>
</g>
<path d="M75.15 309.23C70.9 308.11 67.64 304.4 66.25 300.23C65.0275 295.987 64.9929 291.491 66.15 287.23C67.3377 282.195 69.4945 277.44 72.5 273.23C73.61 271.523 75.0728 270.074 76.79 268.98C77.6568 268.445 78.6408 268.131 79.6567 268.063C80.6727 267.995 81.6898 268.176 82.62 268.59C85.29 269.96 86.04 273.37 86.37 276.35C86.948 281.609 87.1118 286.905 86.86 292.19C86.66 296.44 86.12 300.87 83.74 304.39C81.36 307.91 77.88 310.14 74.57 309.1" fill="#2AAEFF"/>
<path d="M98.66 354.911C98.2279 354.535 97.8358 354.117 97.49 353.661L94.49 350.131C92.9944 348.399 91.4089 346.746 89.74 345.181C87.6782 343.293 85.4677 341.574 83.13 340.041C80.8064 338.502 78.2785 337.297 75.62 336.461C73.4551 335.782 71.1665 335.595 68.92 335.911C67.4099 336.146 65.9457 336.615 64.58 337.301C64.1018 337.61 63.5923 337.868 63.06 338.071C63.4884 337.691 63.9541 337.356 64.45 337.071C65.8075 336.267 67.2975 335.711 68.85 335.431C71.1682 335.036 73.5462 335.179 75.8 335.851C78.533 336.67 81.1307 337.886 83.51 339.461C85.8853 341.016 88.1204 342.776 90.19 344.721C91.8506 346.325 93.4134 348.029 94.87 349.821C96.12 351.351 97.07 352.621 97.73 353.501C98.0897 353.936 98.4015 354.409 98.66 354.911Z" fill="#263238"/>
<path d="M96.36 352.18C96.1732 351.993 96.0087 351.785 95.87 351.56L94.58 349.72C93.47 348.12 91.84 345.81 89.76 343.02C85.61 337.41 79.59 329.87 72.56 321.88C65.53 313.89 58.79 306.98 53.71 302.2C52.46 300.99 51.3 299.92 50.26 299C49.22 298.08 48.36 297.26 47.62 296.63L45.93 295.14C45.7235 294.978 45.5356 294.793 45.37 294.59C45.6057 294.706 45.8244 294.854 46.02 295.03L47.79 296.42C48.56 297.02 49.47 297.8 50.52 298.71C51.57 299.62 52.77 300.65 54.05 301.84C60.7288 308.019 67.0713 314.551 73.05 321.41C80.05 329.41 86.05 337.03 90.11 342.72C92.11 345.56 93.72 347.92 94.77 349.57L95.95 351.49C96.1121 351.704 96.2496 351.935 96.36 352.18Z" fill="#263238"/>
<path d="M85.62 336.97C85.128 336.358 84.6834 335.71 84.29 335.03C83.49 333.75 82.41 331.84 81.22 329.41C79.8484 326.556 78.6365 323.628 77.59 320.64C76.2868 316.982 75.2442 313.236 74.47 309.43C72.9083 302.524 72.6135 295.391 73.6 288.38C73.7775 287.171 74.0347 285.975 74.37 284.8C74.5 284.28 74.6 283.8 74.75 283.35L75.19 282.17C75.4243 281.423 75.7221 280.697 76.08 280C76.26 280.06 74.86 283.14 74.08 288.45C73.2505 295.407 73.6089 302.454 75.14 309.29C75.8967 313.061 76.8988 316.779 78.14 320.42C79.1493 323.403 80.3074 326.333 81.61 329.2C82.73 331.65 83.74 333.58 84.46 334.9C84.9099 335.553 85.2982 336.246 85.62 336.97Z" fill="#263238"/>
<path d="M481.17 118.97H108.58C100.533 118.97 94.01 125.493 94.01 133.54V370.06C94.01 378.107 100.533 384.63 108.58 384.63H481.17C489.217 384.63 495.74 378.107 495.74 370.06V133.54C495.74 125.493 489.217 118.97 481.17 118.97Z" fill="#263238"/>
<path d="M77.21 365H512.45V370.45C512.45 375.171 510.575 379.698 507.237 383.036C503.898 386.375 499.371 388.25 494.65 388.25H95C90.2792 388.25 85.7517 386.375 82.4135 383.036C79.0754 379.698 77.2 375.171 77.2 370.45V365H77.21Z" fill="#263238"/>
<path d="M483.83 129.529H104.79V353.879H483.83V129.529Z" fill="#455A64"/>
<path d="M255.27 364.979L260.67 373.569H336.67L341.69 364.979H255.27Z" fill="#455A64"/>
<path d="M473.53 137.12H115.87C114.064 137.12 112.6 138.584 112.6 140.39V349.88C112.6 351.686 114.064 353.15 115.87 353.15H473.53C475.336 353.15 476.8 351.686 476.8 349.88V140.39C476.8 138.584 475.336 137.12 473.53 137.12Z" fill="#EBEBEB"/>
<path d="M476.8 152.95H112.6V353.15H476.8V152.95Z" fill="#FAFAFA"/>
<path d="M142.47 145.46C142.47 146.035 142.299 146.598 141.98 147.077C141.66 147.555 141.205 147.928 140.674 148.148C140.142 148.369 139.557 148.426 138.992 148.314C138.428 148.202 137.909 147.924 137.502 147.517C137.095 147.111 136.818 146.592 136.706 146.028C136.594 145.463 136.651 144.878 136.872 144.346C137.092 143.814 137.465 143.36 137.943 143.04C138.422 142.72 138.984 142.55 139.56 142.55C140.332 142.55 141.072 142.856 141.618 143.402C142.163 143.948 142.47 144.688 142.47 145.46Z" fill="#455A64"/>
<path d="M124.84 145.46C124.84 146.035 124.669 146.598 124.35 147.077C124.03 147.555 123.575 147.928 123.044 148.148C122.512 148.369 121.927 148.426 121.362 148.314C120.798 148.202 120.279 147.924 119.872 147.517C119.465 147.111 119.188 146.592 119.076 146.028C118.964 145.463 119.021 144.878 119.242 144.346C119.462 143.814 119.835 143.36 120.313 143.04C120.792 142.72 121.354 142.55 121.93 142.55C122.702 142.55 123.442 142.856 123.988 143.402C124.533 143.948 124.84 144.688 124.84 145.46Z" fill="#455A64"/>
<path d="M133.3 145.46C133.3 146.036 133.129 146.599 132.809 147.078C132.489 147.556 132.034 147.929 131.501 148.149C130.969 148.369 130.383 148.426 129.819 148.313C129.254 148.2 128.735 147.922 128.329 147.514C127.922 147.106 127.646 146.587 127.535 146.021C127.424 145.456 127.483 144.871 127.704 144.339C127.926 143.808 128.301 143.354 128.781 143.035C129.26 142.717 129.824 142.548 130.4 142.55C130.782 142.55 131.16 142.625 131.512 142.772C131.865 142.918 132.185 143.132 132.454 143.403C132.724 143.673 132.937 143.994 133.082 144.347C133.227 144.7 133.301 145.078 133.3 145.46Z" fill="#455A64"/>
<path d="M492.29 364.98C492.29 365.12 403.12 365.24 293.16 365.24C183.2 365.24 94.03 365.12 94.03 364.98C94.03 364.84 183.18 364.72 293.18 364.72C403.18 364.72 492.29 364.84 492.29 364.98Z" fill="#455A64"/>
<path d="M184.38 282.06C184.293 279.627 184.377 277.191 184.63 274.77C184.703 272.334 184.957 269.908 185.39 267.51C185.477 269.946 185.393 272.385 185.14 274.81C185.061 277.242 184.807 279.664 184.38 282.06Z" fill="#FAFAFA"/>
<path d="M439.85 262.619C419.39 230.989 398.15 195.499 398.15 195.499C379.67 172.959 364.74 165.079 335.61 163.859L278.94 163.619C267.8 164.249 241.94 158.509 217.94 192.929L217.83 192.759C217.83 192.759 196.58 228.249 176.13 259.889C153.2 295.359 166.92 332.189 191.42 334.339C216.19 336.509 231.55 337.169 239.78 337.339L239.39 353.219L370.78 353.009L369.44 335.219C382.62 335.219 419.11 335.079 424.5 334.409C448.91 331.439 462.78 298.129 439.85 262.619ZM241.64 255.619L240.82 292.479L217.82 292.549L241.64 255.619ZM371.93 295.189L375.52 260.189L398.15 295.289L371.93 295.189Z" fill="#2AAEFF"/>
<path d="M333.41 162.2C333.434 162.476 333.434 162.754 333.41 163.03C333.402 163.816 333.345 164.601 333.24 165.38C333.083 166.621 332.845 167.85 332.53 169.06C332.084 170.658 331.516 172.22 330.83 173.73C329.004 177.665 326.31 181.136 322.95 183.88C318.786 187.228 313.683 189.196 308.35 189.51C303.006 189.887 297.688 188.48 293.23 185.51C289.65 183.045 286.75 179.715 284.8 175.83C283.492 173.228 282.623 170.426 282.23 167.54C282.115 166.759 282.051 165.97 282.04 165.18C282.014 164.907 282.014 164.633 282.04 164.36C282.096 164.63 282.13 164.905 282.14 165.18C282.14 165.72 282.27 166.5 282.43 167.51C282.896 170.352 283.807 173.102 285.13 175.66C287.088 179.462 289.965 182.714 293.5 185.12C297.885 187.992 303.092 189.345 308.32 188.97C313.549 188.663 318.554 186.745 322.65 183.48C325.972 180.797 328.65 177.404 330.49 173.55C331.75 170.958 332.61 168.19 333.04 165.34C333.166 164.565 333.253 163.784 333.3 163C333.314 162.731 333.351 162.463 333.41 162.2Z" fill="#263238"/>
<path d="M375.11 265.15C374.96 265.15 375.51 250.01 376.33 231.36C377.15 212.71 377.93 197.62 378.03 197.62C378.13 197.62 377.63 212.76 376.81 231.42C375.99 250.08 375.25 265.16 375.11 265.15Z" fill="#263238"/>
<path d="M244.32 197.62C244.365 197.82 244.386 198.025 244.38 198.23V199.96C244.38 201.46 244.43 203.63 244.38 206.32C244.38 211.7 244.24 219.12 243.86 227.32C243.48 235.52 242.93 242.92 242.44 248.32C242.2 251 241.98 253.16 241.8 254.66C241.72 255.36 241.65 255.93 241.59 256.37C241.574 256.573 241.54 256.773 241.49 256.97C241.464 256.768 241.464 256.563 241.49 256.36C241.49 255.91 241.56 255.36 241.6 254.64C241.72 253.07 241.88 250.92 242.07 248.29C242.47 242.94 242.96 235.53 243.34 227.35C243.72 219.17 243.91 211.75 244.02 206.35C244.02 203.71 244.1 201.56 244.13 199.99C244.13 199.28 244.13 198.71 244.18 198.26C244.21 198.043 244.257 197.829 244.32 197.62Z" fill="#263238"/>
<path d="M364.59 333.91C364.533 333.667 364.5 333.419 364.49 333.17C364.49 332.64 364.37 331.92 364.28 331C364.12 329.07 363.89 326.34 363.6 322.92C363.05 315.99 362.29 306.32 361.41 295.19V294.91H361.69L374.61 295.12L411.23 295.79L422.33 296.05L425.33 296.15H426.11C426.2 296.137 426.29 296.137 426.38 296.15C426.291 296.165 426.199 296.165 426.11 296.15H425.33H422.33L411.23 296.05L374.59 295.62L361.66 295.4L361.91 295.13C362.72 306.26 363.42 315.94 363.91 322.88C364.13 326.3 364.32 329.04 364.44 330.97C364.5 331.89 364.54 332.61 364.57 333.14C364.593 333.396 364.6 333.653 364.59 333.91Z" fill="#263238"/>
<path d="M421.37 288.62C421.37 288.71 419.95 288.62 417.69 288.74C414.74 288.906 411.82 289.42 408.99 290.27C406.167 291.145 403.455 292.347 400.91 293.85C398.96 295.01 397.84 295.85 397.79 295.8C397.74 295.75 398.03 295.54 398.52 295.13C399.219 294.553 399.954 294.022 400.72 293.54C403.238 291.913 405.971 290.648 408.84 289.78C411.705 288.908 414.676 288.434 417.67 288.37C418.578 288.353 419.486 288.386 420.39 288.47C420.722 288.478 421.051 288.528 421.37 288.62Z" fill="#263238"/>
<path d="M247.3 337.62C247.285 337.544 247.285 337.466 247.3 337.39C247.3 337.21 247.3 336.99 247.37 336.72C247.45 336.09 247.56 335.24 247.69 334.14C248 331.86 248.44 328.62 248.98 324.6C250.13 316.47 251.71 305.21 253.51 292.47L253.76 292.77L246.76 292.67C232.25 292.57 219.1 292.84 209.58 292.79C204.82 292.79 200.97 292.72 198.31 292.65L195.25 292.55H194.45H194.18C194.269 292.535 194.361 292.535 194.45 292.55H198.31H209.58C219.09 292.5 232.24 292.18 246.77 292.28L253.77 292.38H254.03V292.67C252.17 305.39 250.52 316.67 249.33 324.77C248.72 328.77 248.23 332.02 247.89 334.29C247.71 335.38 247.57 336.23 247.47 336.85C247.47 337.12 247.39 337.34 247.35 337.52C247.31 337.7 247.31 337.62 247.3 337.62Z" fill="#263238"/>
<path d="M217.26 292.94C216.53 292.444 215.859 291.867 215.26 291.22C214.08 290.09 212.51 288.46 210.89 286.56C209.27 284.66 207.89 282.85 206.99 281.5C206.447 280.799 205.987 280.037 205.62 279.229C206.234 279.864 206.793 280.55 207.29 281.28C208.29 282.57 209.68 284.279 211.29 286.229C212.9 288.179 214.41 289.77 215.53 290.96C216.16 291.571 216.738 292.233 217.26 292.94Z" fill="#263238"/>
<path d="M276.03 207.499C274.503 205.052 273.128 202.514 271.91 199.899C270.539 197.363 269.317 194.748 268.25 192.069C269.777 194.517 271.152 197.055 272.37 199.669C273.746 202.204 274.968 204.818 276.03 207.499Z" fill="#FAFAFA"/>
<path d="M332.28 206.74C331.693 207.509 331.022 208.21 330.28 208.83C326.877 211.986 323.119 214.734 319.08 217.02C318.264 217.525 317.4 217.947 316.5 218.28C317.257 217.691 318.059 217.162 318.9 216.7C320.39 215.76 322.44 214.42 324.62 212.83C326.8 211.24 328.68 209.7 330.03 208.55C330.74 207.898 331.491 207.294 332.28 206.74Z" fill="#FAFAFA"/>
<path d="M359.33 201.85C357.289 199.588 355.379 197.211 353.61 194.73C351.7 192.356 349.927 189.876 348.3 187.3C350.341 189.564 352.254 191.941 354.03 194.42C355.938 196.792 357.708 199.273 359.33 201.85Z" fill="#FAFAFA"/>
<path d="M357.47 237C355.6 238.311 353.634 239.481 351.59 240.5C349.623 241.67 347.571 242.69 345.45 243.55C347.32 242.233 349.289 241.063 351.34 240.05C353.303 238.879 355.352 237.859 357.47 237Z" fill="#FAFAFA"/>
<path d="M396.46 239.91C396.269 236.733 396.249 233.549 396.4 230.37C396.382 227.187 396.536 224.006 396.86 220.84C397.051 224.016 397.071 227.201 396.92 230.38C396.943 233.563 396.79 236.744 396.46 239.91Z" fill="#FAFAFA"/>
<path d="M412.63 267.189C409.22 267.654 405.789 267.948 402.35 268.069C396.66 268.409 392.05 268.569 392.04 268.429C395.45 267.964 398.881 267.67 402.32 267.549C408.03 267.209 412.62 267.049 412.63 267.189Z" fill="#FAFAFA"/>
<path d="M438.8 287.43C438.321 284.185 438.021 280.917 437.9 277.64C437.598 274.372 437.475 271.091 437.53 267.81C437.996 271.059 438.293 274.33 438.42 277.61C438.716 280.874 438.843 284.152 438.8 287.43Z" fill="#FAFAFA"/>
<path d="M427.77 312.83C425.467 315.393 423.034 317.836 420.48 320.15C418.055 322.593 415.505 324.909 412.84 327.09C412.74 326.99 416 323.71 420.12 319.77C424.24 315.83 427.67 312.73 427.77 312.83Z" fill="#FAFAFA"/>
<path d="M384.25 320.979C383.587 320.82 382.958 320.546 382.39 320.169C379.523 318.565 377.068 316.316 375.22 313.599C374.786 313.069 374.447 312.466 374.22 311.819C375.615 313.615 377.125 315.319 378.74 316.919C380.483 318.395 382.324 319.751 384.25 320.979Z" fill="#FAFAFA"/>
<path d="M270.03 230.25C267.955 232.379 265.754 234.383 263.44 236.25C261.238 238.241 258.925 240.104 256.51 241.83C258.586 239.701 260.786 237.697 263.1 235.83C265.302 233.839 267.615 231.976 270.03 230.25Z" fill="#FAFAFA"/>
<path d="M297.71 243.92C295.5 241.392 294.105 238.255 293.71 234.92C293.86 234.92 294.4 237.05 295.51 239.53C296.62 242.01 297.84 243.84 297.71 243.92Z" fill="#FAFAFA"/>
<path d="M249.13 174.79C249.22 174.91 245.5 178.06 240.81 181.79C236.12 185.52 232.26 188.54 232.17 188.43C232.08 188.32 235.8 185.16 240.49 181.43C245.18 177.7 249.03 174.68 249.13 174.79Z" fill="#FAFAFA"/>
<path d="M229.91 227.389C229.76 227.439 228.62 224.099 226.71 220.209C224.8 216.319 222.87 213.369 223 213.279C223.549 213.828 224.023 214.447 224.41 215.119C225.431 216.682 226.356 218.305 227.18 219.979C228.003 221.654 228.714 223.381 229.31 225.149C229.606 225.867 229.807 226.62 229.91 227.389Z" fill="#FAFAFA"/>
<path d="M221.94 249.45C221.156 249.901 220.32 250.254 219.45 250.5C215.302 251.895 210.956 252.611 206.58 252.62C205.676 252.669 204.769 252.605 203.88 252.43C204.771 252.307 205.67 252.246 206.57 252.25C208.733 252.16 210.89 251.95 213.03 251.62C215.16 251.258 217.27 250.784 219.35 250.2C220.192 249.881 221.058 249.631 221.94 249.45Z" fill="#FAFAFA"/>
<path d="M200.85 305.109C198.068 307.166 195.184 309.082 192.21 310.849C187.36 313.849 183.37 316.279 183.29 316.159C186.07 314.096 188.953 312.177 191.93 310.409C194.813 308.494 197.79 306.725 200.85 305.109Z" fill="#FAFAFA"/>
<path d="M228.21 325.3C228.08 325.35 226.06 320.11 223.71 313.6C221.36 307.09 219.55 301.77 219.71 301.72C219.87 301.67 221.86 306.91 224.22 313.42C226.58 319.93 228.35 325.25 228.21 325.3Z" fill="#FAFAFA"/>
<path d="M257.66 283.29C256.428 281.235 255.342 279.097 254.41 276.89C253.323 274.752 252.397 272.536 251.64 270.26C252.872 272.316 253.955 274.458 254.88 276.67C255.968 278.805 256.897 281.018 257.66 283.29Z" fill="#FAFAFA"/>
<path d="M368.94 265.14C368.74 265.916 368.462 266.67 368.11 267.39C367.55 268.76 366.77 270.64 365.96 272.74C365.15 274.84 364.46 276.74 363.96 278.15C363.737 278.92 363.438 279.667 363.07 280.38C363.155 279.581 363.337 278.795 363.61 278.04C364.03 276.61 364.67 274.67 365.49 272.56C366.31 270.45 367.14 268.56 367.79 267.24C368.094 266.499 368.48 265.795 368.94 265.14Z" fill="#FAFAFA"/>
<path d="M275.44 346.4C274.521 346.461 273.599 346.461 272.68 346.4C270.472 346.373 268.265 346.476 266.07 346.71C263.874 346.949 261.694 347.313 259.54 347.8C258.657 348.053 257.759 348.247 256.85 348.38C257.672 347.956 258.546 347.64 259.45 347.44C261.602 346.843 263.799 346.425 266.02 346.19C268.235 345.951 270.466 345.897 272.69 346.03C273.618 346.038 274.542 346.163 275.44 346.4Z" fill="#FAFAFA"/>
<path d="M302.4 348.33C302.26 348.41 300.71 345.6 298.13 342.66C295.55 339.72 293 337.77 293.13 337.66C293.768 337.957 294.358 338.348 294.88 338.82C296.212 339.871 297.441 341.046 298.55 342.33C299.674 343.609 300.679 344.988 301.55 346.45C301.918 347.035 302.205 347.667 302.4 348.33Z" fill="#FAFAFA"/>
<path d="M332.18 340.47C330.238 341.947 328.193 343.284 326.06 344.47C324.019 345.798 321.887 346.981 319.68 348.01C321.616 346.528 323.658 345.191 325.79 344.01C327.832 342.678 329.968 341.495 332.18 340.47Z" fill="#FAFAFA"/>
<path d="M363.77 346.93C362.287 347.032 360.797 346.961 359.33 346.72C357.844 346.653 356.37 346.411 354.94 346C356.423 345.899 357.913 345.969 359.38 346.21C360.867 346.273 362.341 346.514 363.77 346.93Z" fill="#FAFAFA"/>
<path d="M325.58 93.9298C325.377 94.7743 325.427 95.6597 325.722 96.4764C326.018 97.2931 326.546 98.0053 327.242 98.5247C327.938 99.0441 328.771 99.3479 329.638 99.3986C330.505 99.4493 331.368 99.2445 332.12 98.8098C334.96 97.1598 335.12 93.1098 334.34 89.9198C333.56 86.7298 332.29 83.3498 333.48 80.2898C334.38 77.9498 336.54 76.3798 338.18 74.4898C339.63 72.8432 340.679 70.8825 341.243 68.7621C341.806 66.6416 341.871 64.4192 341.43 62.2698C340.939 60.1315 339.867 58.1705 338.332 56.6034C336.796 55.0363 334.858 53.9241 332.73 53.3898C328.37 52.3898 323.16 54.0598 319.79 51.1298C317.34 49.0098 316.99 45.3298 315.05 42.7398C312.05 38.7398 306.11 38.3998 301.19 39.3598C296.27 40.3198 291.29 42.1998 286.36 41.2698C282.24 40.4898 278.74 37.8398 274.83 36.2698C270.564 34.6194 265.889 34.34 261.457 35.4703C257.024 36.6007 253.054 39.0846 250.099 42.5764C247.144 46.0683 245.351 50.3944 244.97 54.9528C244.588 59.5112 245.637 64.0752 247.97 68.0098C249.544 70.9071 252.09 73.1558 255.16 74.3598" fill="#263238"/>
<path d="M309.03 186.859C302.435 187.414 295.889 185.33 290.827 181.065C285.766 176.801 282.602 170.703 282.03 164.109C281.35 156.269 280.8 149.669 280.8 149.669C280.8 149.669 260.8 147.979 259.15 128.189C257.5 108.399 257.75 65.3094 257.75 65.3094V62.6994C279.98 51.2394 306.81 54.8794 327.65 68.6994L327.9 72.7794L331.89 161.619C331.974 167.936 329.663 174.051 325.422 178.733C321.181 183.416 315.324 186.319 309.03 186.859Z" fill="#FFBE9D"/>
<path d="M267.46 96.2302C267.999 96.0004 268.456 95.6131 268.771 95.1192C269.087 94.6253 269.246 94.0478 269.227 93.4621C269.209 92.8764 269.014 92.3099 268.668 91.8367C268.323 91.3635 267.842 91.0057 267.29 90.8102C266.641 90.5702 265.924 90.5917 265.29 90.8702C264.748 91.0983 264.287 91.4854 263.969 91.9806C263.652 92.4757 263.491 93.0555 263.51 93.6436C263.528 94.2316 263.724 94.8003 264.073 95.2745C264.421 95.7488 264.904 96.1064 265.46 96.3002C266.11 96.537 266.828 96.5119 267.46 96.2302Z" fill="#263238"/>
<path d="M260.35 92.0901C260.68 92.4101 262.52 90.7801 265.25 90.5801C267.98 90.3801 270.05 91.6401 270.33 91.2701C270.47 91.1001 270.11 90.5101 269.2 89.9101C267.973 89.1447 266.532 88.7955 265.091 88.9144C263.649 89.0333 262.285 89.6139 261.2 90.5701C260.44 91.3001 260.19 91.9501 260.35 92.0901Z" fill="#263238"/>
<path d="M293.21 91.5398C292.744 91.8692 292.386 92.3295 292.182 92.8625C291.978 93.3954 291.937 93.977 292.065 94.5333C292.192 95.0896 292.481 95.5956 292.896 95.9871C293.311 96.3786 293.834 96.6379 294.396 96.7322C294.959 96.8265 295.537 96.7514 296.057 96.5166C296.578 96.2817 297.016 95.8977 297.318 95.4132C297.619 94.9286 297.77 94.3655 297.751 93.7952C297.731 93.2248 297.543 92.673 297.21 92.2098C296.765 91.5954 296.096 91.1807 295.347 91.0553C294.599 90.93 293.831 91.104 293.21 91.5398Z" fill="#263238"/>
<path d="M289.41 92.5501C289.74 92.8701 291.58 91.2401 294.31 91.0401C297.04 90.8401 299.11 92.1001 299.39 91.7301C299.52 91.5601 299.17 90.9701 298.26 90.3701C297.033 89.6046 295.592 89.2554 294.151 89.3743C292.709 89.4932 291.345 90.0739 290.26 91.0301C289.5 91.7601 289.25 92.4101 289.41 92.5501Z" fill="#263238"/>
<path d="M280.03 115.819C280.03 115.609 278.32 115.399 275.55 115.219C274.84 115.219 274.24 115.079 274.15 114.679C274.069 113.956 274.193 113.225 274.51 112.569L276.28 106.879C278.7 98.7694 280.36 92.1094 279.97 91.9994C279.58 91.8894 277.3 98.3494 274.87 106.459C274.3 108.459 273.75 110.329 273.22 112.179C272.818 113.129 272.751 114.187 273.03 115.179C273.151 115.434 273.33 115.657 273.552 115.83C273.774 116.004 274.034 116.123 274.31 116.179C274.711 116.259 275.122 116.282 275.53 116.249C278.33 116.179 280.03 116.019 280.03 115.819Z" fill="#263238"/>
<path d="M289.12 118.21C291.84 116.32 281.59 122.91 276.02 123.03C276.02 123.03 279.56 127.9 285.12 125.41C290.9 122.82 289.12 118.21 289.12 118.21Z" fill="white"/>
<path d="M280.78 149.38C280.78 149.38 293.36 149.53 306.08 140.24C306.08 140.24 300.98 154.92 281.08 154.52L280.78 149.38Z" fill="#EB996E"/>
<path d="M327.64 86.0097C328.07 85.8397 342.32 83.8697 341.12 100.73C339.92 117.59 323.28 110.79 323.28 110.31C323.28 109.83 327.64 86.0097 327.64 86.0097Z" fill="#FFBE9D"/>
<path d="M328.87 104.76C328.95 104.76 329.15 104.99 329.63 105.25C330.308 105.591 331.091 105.663 331.82 105.45C333.65 104.93 335.35 102.2 335.65 99.1697C335.802 97.7286 335.624 96.2719 335.13 94.9097C335.01 94.3704 334.761 93.8684 334.403 93.4469C334.046 93.0253 333.592 92.6968 333.08 92.4897C332.748 92.3775 332.387 92.3851 332.06 92.5111C331.733 92.6372 331.461 92.8737 331.29 93.1797C331.03 93.6297 331.12 93.9797 331.03 93.9997C330.94 94.0197 330.68 93.6897 330.87 92.9997C330.996 92.592 331.257 92.2394 331.61 91.9997C332.098 91.6844 332.691 91.5731 333.26 91.6897C333.943 91.8737 334.567 92.2309 335.071 92.7266C335.576 93.2224 335.944 93.84 336.14 94.5197C336.757 96.0327 336.994 97.6739 336.83 99.2997C336.48 102.69 334.51 105.74 332.02 106.3C331.559 106.402 331.08 106.398 330.621 106.287C330.162 106.176 329.734 105.961 329.37 105.66C328.87 105.17 328.81 104.79 328.87 104.76Z" fill="#EB996E"/>
<path d="M300.93 81.8902C300.49 82.4902 297.52 81.0002 293.64 81.0402C289.76 81.0802 286.77 82.4102 286.34 81.8002C286.15 81.5202 286.7 80.7102 287.99 79.9102C289.715 78.9282 291.669 78.4176 293.654 78.4299C295.64 78.4422 297.587 78.9769 299.3 79.9802C300.58 80.8002 301.12 81.6202 300.93 81.8902Z" fill="#263238"/>
<path d="M269.89 83.0394C269.73 83.7494 267.61 83.8594 265.12 83.9394C262.63 84.0194 260.5 83.9894 260.3 83.2894C260.1 82.5894 262.18 81.3994 265.05 81.2894C267.92 81.1794 270.03 82.3594 269.89 83.0394Z" fill="#263238"/>
<path d="M253.55 73.7098C253.55 73.7098 265.73 79.0498 281.01 70.7098C291.01 65.2298 302.85 62.2998 305.56 64.2498C308.27 66.1998 309.2 76.7198 319.44 79.4098C319.44 79.4098 319.44 99.5198 327.44 98.5098C335.44 97.4998 329.26 66.5698 329.26 66.5698L310.44 54.0498L288.91 50.7998L265.42 54.2998L252.32 62.9298L253.55 73.7098Z" fill="#263238"/>
<path d="M330.1 49.6999C328.59 49.8213 327.105 50.158 325.69 50.6999C324.339 51.3827 323.09 52.2511 321.98 53.2799C321.93 53.2799 322.17 52.7699 322.75 52.1399C323.524 51.3233 324.454 50.6699 325.484 50.2182C326.515 49.7665 327.625 49.5257 328.75 49.5099C329.59 49.4899 330.11 49.6199 330.1 49.6999Z" fill="#263238"/>
<path d="M321.56 42.1094C321.806 42.6805 321.955 43.289 322 43.9094C322.24 45.3867 322.297 46.8881 322.17 48.3794C322.047 49.8783 321.661 51.3439 321.03 52.7094C320.804 53.294 320.464 53.8278 320.03 54.2794C320.204 53.6926 320.424 53.1207 320.69 52.5694C321.213 51.2076 321.549 49.7813 321.69 48.3294C321.818 46.8722 321.818 45.4066 321.69 43.9494C321.579 43.3427 321.535 42.7256 321.56 42.1094Z" fill="#263238"/>
<path d="M320.77 50.7095C320.736 50.8882 320.692 51.0651 320.64 51.2395C320.496 51.7608 320.308 52.2692 320.08 52.7595C319.315 54.3924 318.202 55.8387 316.821 56.9976C315.439 58.1565 313.821 59.0001 312.08 59.4695C310.332 59.9406 308.495 59.975 306.73 59.5695C304.697 59.1079 302.811 58.1493 301.24 56.7795C299.461 55.2556 298.177 53.2365 297.55 50.9795C297.21 49.7595 297.135 48.4809 297.33 47.2295C297.535 45.9038 298.163 44.6798 299.12 43.7395C299.613 43.2414 300.203 42.8496 300.853 42.5882C301.503 42.3267 302.2 42.2013 302.9 42.2195C303.63 42.2736 304.338 42.4948 304.969 42.8658C305.6 43.2368 306.138 43.7479 306.54 44.3595C307.405 45.5893 307.822 47.0792 307.72 48.5795C307.547 50.1097 306.963 51.5644 306.03 52.7895C304.051 55.2663 301.418 57.1402 298.43 58.1995C295.329 59.3707 292.001 59.8187 288.7 59.5095C285.248 59.1922 281.934 58.0015 279.07 56.0495C277.584 55.0408 276.344 53.7115 275.44 52.1595C274.99 51.3594 274.685 50.4859 274.54 49.5795C274.411 48.659 274.459 47.7223 274.68 46.8195C274.917 45.9096 275.339 45.0585 275.92 44.3195C276.524 43.5742 277.324 43.013 278.23 42.6995C279.154 42.4488 280.122 42.4084 281.064 42.5815C282.005 42.7546 282.896 43.1366 283.67 43.6995C285.227 44.7837 286.414 46.3195 287.07 48.0995C287.727 49.8364 287.93 51.7122 287.66 53.5495C287.328 55.3292 286.603 57.0126 285.54 58.4776C284.476 59.9426 283.099 61.1525 281.51 62.0195C278.463 63.6958 274.939 64.2914 271.51 63.7095C268.21 63.2503 265.098 61.8983 262.51 59.7995C261.272 58.7608 260.281 57.4593 259.61 55.9895C258.967 54.5401 258.729 52.9436 258.92 51.3695C259.114 49.835 259.843 48.4183 260.98 47.3695C261.529 46.8524 262.183 46.4589 262.897 46.2157C263.611 45.9725 264.369 45.8851 265.12 45.9595C265.839 46.0807 266.525 46.3515 267.134 46.7546C267.742 47.1577 268.258 47.6841 268.65 48.2995C269.411 49.4881 269.762 50.8928 269.65 52.2995C269.556 53.5951 269.159 54.8503 268.49 55.9639C267.821 57.0774 266.9 58.0179 265.8 58.7095C263.768 59.887 261.416 60.3911 259.08 60.1495C257.013 59.9624 255.009 59.3387 253.2 58.3195C249.8 56.4295 247.79 53.3195 247.58 50.5695C247.449 49.5172 247.528 48.4493 247.813 47.4278C248.098 46.4064 248.583 45.4518 249.24 44.6195C249.58 44.1997 249.977 43.8294 250.42 43.5195L250.89 43.2295C250.299 43.638 249.77 44.1298 249.32 44.6895C248.065 46.3428 247.503 48.4189 247.75 50.4795C247.99 53.1395 249.97 56.1695 253.31 57.9995C255.085 58.9821 257.048 59.5785 259.07 59.7495C261.336 59.9684 263.614 59.468 265.58 58.3195C266.623 57.6571 267.495 56.7592 268.128 55.6979C268.76 54.6367 269.134 53.4418 269.22 52.2095C269.298 50.8971 268.947 49.595 268.22 48.4995C267.866 47.9422 267.399 47.4649 266.85 47.0982C266.3 46.7314 265.681 46.4833 265.03 46.3695C264.341 46.3044 263.647 46.3876 262.993 46.6135C262.339 46.8395 261.741 47.203 261.24 47.6795C260.173 48.662 259.498 49.9977 259.34 51.4395C259.16 52.9291 259.388 54.4397 260 55.8095C260.64 57.2141 261.591 58.4552 262.78 59.4395C265.303 61.4728 268.331 62.7828 271.54 63.2295C274.872 63.7935 278.297 63.2156 281.26 61.5895C282.781 60.7579 284.098 59.599 285.117 58.1966C286.135 56.7941 286.83 55.183 287.15 53.4795C287.409 51.7301 287.217 49.9434 286.59 48.2895C285.962 46.6147 284.843 45.1684 283.38 44.1395C282.673 43.6121 281.858 43.2487 280.993 43.0757C280.128 42.9027 279.235 42.9245 278.38 43.1395C277.568 43.43 276.854 43.9429 276.32 44.6195C275.782 45.2971 275.393 46.081 275.18 46.9195C274.977 47.7539 274.933 48.6189 275.05 49.4695C275.189 50.3152 275.473 51.1306 275.89 51.8795C276.753 53.3642 277.939 54.6357 279.36 55.5995C282.153 57.5051 285.384 58.6714 288.75 58.9895C291.975 59.2967 295.228 58.8623 298.26 57.7195C301.164 56.6957 303.726 54.885 305.66 52.4895C306.556 51.3307 307.114 49.9461 307.27 48.4895C307.361 47.1141 306.98 45.7488 306.19 44.6195C305.826 44.0571 305.339 43.5848 304.765 43.2383C304.192 42.8918 303.547 42.6802 302.88 42.6195C302.235 42.605 301.595 42.7216 300.996 42.9623C300.398 43.2029 299.855 43.5626 299.4 44.0195C298.498 44.898 297.905 46.0454 297.71 47.2895C297.522 48.4863 297.587 49.7093 297.9 50.8795C298.502 53.0706 299.741 55.0336 301.46 56.5195C302.982 57.8623 304.814 58.8071 306.79 59.2695C308.503 59.7017 310.297 59.7017 312.01 59.2695C313.448 58.9062 314.805 58.2752 316.01 57.4095C317.711 56.218 319.086 54.6193 320.01 52.7595C320.247 52.2783 320.447 51.7803 320.61 51.2695C320.7 50.8795 320.77 50.7095 320.77 50.7095Z" fill="#455A64"/>
<path d="M340.38 70.4702C340.38 70.4702 340.38 70.5302 340.25 70.6202C340.12 70.7102 340.02 70.8402 339.81 70.9902C339.219 71.4343 338.57 71.7944 337.88 72.0602C336.784 72.4832 335.614 72.6805 334.44 72.6402C332.868 72.596 331.343 72.0957 330.05 71.2002C328.474 70.1104 327.295 68.5382 326.69 66.7202C326.308 65.7084 326.224 64.608 326.45 63.5502C326.57 62.9648 326.888 62.4387 327.35 62.0602C327.605 61.8666 327.907 61.7443 328.225 61.7056C328.543 61.667 328.866 61.7134 329.16 61.8402C329.729 62.1177 330.179 62.5895 330.43 63.1702C330.702 63.7288 330.852 64.339 330.87 64.9602C330.87 66.8977 330.174 68.7709 328.91 70.2391C327.646 71.7072 325.896 72.6728 323.98 72.9602C322.68 73.1419 321.354 73.0006 320.121 72.5489C318.888 72.0972 317.785 71.349 316.91 70.3702C316.489 69.8904 316.181 69.3226 316.008 68.7084C315.835 68.0942 315.801 67.449 315.91 66.8202C316.003 66.1976 316.29 65.6203 316.73 65.1698C317.17 64.7193 317.74 64.4186 318.36 64.3102C318.948 64.2389 319.544 64.319 320.091 64.5431C320.639 64.7671 321.121 65.1276 321.49 65.5902C322.154 66.4478 322.507 67.5057 322.49 68.5902C322.462 69.5594 322.219 70.5103 321.78 71.3748C321.341 72.2393 320.716 72.9958 319.95 73.5902C318.716 74.5944 317.147 75.0914 315.56 74.9802C314.381 74.8814 313.247 74.4782 312.27 73.8102C311.658 73.3919 311.126 72.8668 310.7 72.2602C310.545 72.0541 310.417 71.8289 310.32 71.5902C310.875 72.3799 311.574 73.0584 312.38 73.5902C313.338 74.2102 314.441 74.5719 315.58 74.6402C317.086 74.7133 318.564 74.2171 319.72 73.2502C320.416 72.6903 320.982 71.9868 321.381 71.1877C321.78 70.3886 322.001 69.5127 322.03 68.6202C322.058 67.6285 321.744 66.6574 321.14 65.8702C320.821 65.4724 320.405 65.1626 319.933 64.9701C319.46 64.7776 318.946 64.7088 318.44 64.7702C317.926 64.8754 317.457 65.1379 317.099 65.5213C316.74 65.9047 316.51 66.3901 316.44 66.9102C316.356 67.4697 316.398 68.0409 316.562 68.5823C316.726 69.1237 317.009 69.6217 317.39 70.0402C318.209 70.9506 319.239 71.6456 320.39 72.0641C321.541 72.4826 322.777 72.6118 323.99 72.4402C325.785 72.1678 327.423 71.2618 328.608 69.8861C329.793 68.5103 330.447 66.7558 330.45 64.9402C330.467 64.4094 330.347 63.8833 330.101 63.4123C329.856 62.9413 329.494 62.5411 329.05 62.2502C328.833 62.1538 328.594 62.1178 328.358 62.146C328.122 62.1741 327.898 62.2654 327.71 62.4102C327.334 62.7269 327.074 63.1595 326.97 63.6402C326.758 64.6135 326.831 65.6272 327.18 66.5602C327.747 68.2969 328.854 69.8071 330.34 70.8702C331.569 71.7451 333.023 72.2484 334.53 72.3202C335.671 72.381 336.812 72.2179 337.89 71.8402C338.778 71.4973 339.615 71.0365 340.38 70.4702Z" fill="#455A64"/>
<path d="M266.27 271.399L350.35 272.849L351.3 330.059L264.27 327.129L266.27 271.399Z" fill="#455A64"/>
<path d="M266.27 271.4L309.79 237.91L350.35 272.85" fill="#263238"/>
<path d="M264.27 327.12C264.16 327.02 271.08 319.84 279.7 311.12C288.32 302.4 295.4 295.34 295.5 295.44C295.6 295.54 288.7 302.72 280.07 311.49C271.44 320.26 264.37 327.22 264.27 327.12Z" fill="#263238"/>
<path d="M351.3 330.059C351.19 330.149 344.81 322.789 337.05 313.619C329.29 304.449 323.1 296.939 323.21 296.849C323.32 296.759 329.69 304.109 337.45 313.289C345.21 322.469 351.41 329.969 351.3 330.059Z" fill="#263238"/>
<path d="M350.35 272.849L307.31 305.539L266.27 271.399" fill="#263238"/>
<path d="M270.43 274.63L270.9 250.17H344.58L344.73 276.95L307.32 305.1L270.43 274.63Z" fill="#EBEBEB"/>
<path d="M288.91 277.109C288.837 277.456 288.657 277.636 288.37 277.649C288.271 277.641 288.175 277.61 288.09 277.559C288.005 277.494 287.937 277.409 287.894 277.311C287.85 277.213 287.831 277.106 287.84 276.999L289.16 267.879C289.15 267.816 289.15 267.752 289.16 267.689C289.193 267.59 289.258 267.505 289.345 267.447C289.432 267.389 289.536 267.362 289.64 267.369C289.728 267.368 289.815 267.392 289.89 267.439C289.973 267.477 290.043 267.538 290.092 267.614C290.142 267.69 290.169 267.779 290.17 267.869C289.37 273.809 288.95 276.889 288.91 277.109Z" fill="#263238"/>
<path d="M297.88 277.21C297.83 277.55 297.65 277.72 297.35 277.72C297.23 277.712 297.114 277.672 297.016 277.603C296.917 277.534 296.839 277.44 296.79 277.33L293.51 269.63C293.51 269.99 293.41 270.4 293.35 270.85C292.87 274.52 292.58 276.62 292.49 277.13C292.4 277.64 292.24 277.67 291.94 277.67C291.839 277.671 291.741 277.639 291.66 277.58C291.572 277.517 291.502 277.432 291.457 277.334C291.411 277.236 291.392 277.128 291.4 277.02C292.26 270.96 292.7 267.92 292.7 267.9C292.718 267.827 292.745 267.757 292.78 267.69C292.83 267.606 292.902 267.537 292.988 267.491C293.075 267.445 293.172 267.424 293.27 267.43C293.378 267.415 293.489 267.432 293.588 267.478C293.688 267.524 293.771 267.598 293.83 267.69L297.09 275.22L298.14 267.99C298.139 267.91 298.16 267.83 298.2 267.76C298.234 267.67 298.296 267.593 298.377 267.541C298.458 267.489 298.554 267.464 298.65 267.47C298.741 267.47 298.831 267.494 298.91 267.54C298.988 267.589 299.052 267.657 299.096 267.737C299.14 267.818 299.162 267.908 299.16 268C299.16 268.15 299.11 268.31 299.09 268.48C298.383 273.707 297.98 276.617 297.88 277.21Z" fill="#263238"/>
<path d="M302.76 267.52C302.849 267.522 302.936 267.55 303.01 267.6C303.09 267.645 303.157 267.71 303.205 267.789C303.252 267.868 303.278 267.958 303.28 268.05C303.09 269.48 302.93 270.61 302.83 271.42C302.55 273.47 302.41 274.63 302.4 274.9C302.4 276.02 302.67 276.59 303.25 276.6C303.806 276.585 304.351 276.444 304.845 276.187C305.339 275.931 305.768 275.566 306.1 275.12C306.866 274.16 307.427 273.054 307.75 271.87C307.054 271.866 306.377 271.638 305.82 271.22C305.543 270.99 305.324 270.698 305.18 270.368C305.036 270.038 304.971 269.679 304.99 269.32C304.993 269.051 305.055 268.786 305.173 268.544C305.29 268.301 305.46 268.088 305.67 267.92C306.023 267.607 306.479 267.437 306.95 267.44C307.234 267.434 307.516 267.486 307.779 267.592C308.042 267.699 308.28 267.858 308.48 268.06C308.712 268.303 308.892 268.59 309.008 268.905C309.125 269.22 309.177 269.555 309.16 269.89C309.16 270.06 309.16 270.34 309.1 270.73L309.39 270.65C309.705 270.533 310.007 270.382 310.29 270.2C310.472 270.068 310.686 269.988 310.91 269.97C310.984 269.971 311.056 269.992 311.12 270.03C311.197 270.071 311.26 270.134 311.302 270.21C311.345 270.286 311.365 270.373 311.36 270.46C311.36 270.74 311.13 271 310.69 271.25C310.12 271.561 309.495 271.758 308.85 271.83C308.496 273.23 307.86 274.544 306.98 275.69C306.54 276.333 305.951 276.859 305.263 277.225C304.575 277.59 303.809 277.784 303.03 277.79C302.832 277.788 302.637 277.755 302.45 277.69C301.69 277.39 301.32 276.49 301.34 275C301.375 273.943 301.485 272.891 301.67 271.85C301.88 270.55 302.02 269.65 302.06 269.14C301.62 269.42 301.27 269.63 301.06 269.78C300.827 269.959 300.567 270.101 300.29 270.2C300.187 270.199 300.086 270.168 300 270.11C299.922 270.061 299.858 269.994 299.814 269.913C299.77 269.832 299.748 269.742 299.75 269.65C299.759 269.544 299.794 269.443 299.852 269.354C299.909 269.265 299.988 269.192 300.08 269.14H300.13C300.959 268.527 301.839 267.985 302.76 267.52ZM306.06 269.52C306.059 269.722 306.107 269.921 306.2 270.1C306.47 270.6 307.07 270.85 308.01 270.86C308.076 270.531 308.113 270.196 308.12 269.86C308.129 269.667 308.102 269.473 308.04 269.29C307.996 269.084 307.88 268.9 307.714 268.77C307.547 268.64 307.341 268.573 307.13 268.58C306.917 268.578 306.708 268.63 306.52 268.73C306.375 268.803 306.253 268.914 306.166 269.052C306.08 269.189 306.033 269.348 306.03 269.51L306.06 269.52Z" fill="#263238"/>
<path d="M311.03 277.33C310.96 277.69 310.78 277.87 310.5 277.87C310.399 277.872 310.301 277.841 310.22 277.78C310.131 277.718 310.06 277.634 310.014 277.535C309.968 277.437 309.95 277.328 309.96 277.22L311.28 268.11V267.92C311.315 267.82 311.382 267.735 311.471 267.677C311.559 267.619 311.664 267.592 311.77 267.6C311.857 267.6 311.943 267.62 312.02 267.66C312.101 267.698 312.17 267.759 312.218 267.835C312.266 267.912 312.291 268 312.29 268.09C311.45 274.043 311.03 277.123 311.03 277.33Z" fill="#263238"/>
<path d="M321.8 268.24C321.798 268.329 321.77 268.416 321.72 268.49C321.663 268.568 321.588 268.631 321.501 268.673C321.413 268.715 321.317 268.734 321.22 268.729H318.22C317.447 274.309 317.043 277.203 317.01 277.41C317.01 277.41 317.01 277.46 317.01 277.49C316.997 277.621 316.934 277.743 316.833 277.829C316.732 277.915 316.602 277.958 316.47 277.949C316.369 277.952 316.271 277.92 316.19 277.86C316.104 277.795 316.036 277.71 315.992 277.612C315.948 277.514 315.93 277.406 315.94 277.3C315.94 277.3 316.23 275.23 316.8 271.3C317 269.95 317.12 269.11 317.17 268.75H314.34C314.238 268.743 314.138 268.727 314.04 268.699C313.941 268.677 313.854 268.62 313.792 268.54C313.73 268.46 313.697 268.361 313.7 268.26C313.702 268.158 313.729 268.058 313.78 267.97C313.833 267.886 313.907 267.819 313.995 267.775C314.083 267.731 314.182 267.712 314.28 267.72L321.28 267.79C321.346 267.776 321.414 267.776 321.48 267.79C321.572 267.825 321.651 267.886 321.708 267.966C321.765 268.046 321.797 268.141 321.8 268.24Z" fill="#263238"/>
<path d="M323.29 267.71L327.54 267.76C327.623 267.75 327.707 267.75 327.79 267.76C327.9 267.792 327.995 267.862 328.059 267.957C328.123 268.052 328.152 268.166 328.14 268.28C328.154 268.346 328.154 268.414 328.14 268.48C328.087 268.578 328.009 268.661 327.915 268.721C327.82 268.78 327.712 268.815 327.6 268.82H323.78L323.27 272.43H326.02C326.123 272.43 326.225 272.451 326.32 272.49C326.418 272.53 326.501 272.6 326.556 272.69C326.612 272.779 326.638 272.885 326.63 272.99C326.64 273.05 326.64 273.11 326.63 273.17C326.579 273.273 326.501 273.36 326.404 273.422C326.307 273.483 326.195 273.517 326.08 273.52H323.16L322.68 276.9H326.46C326.556 276.896 326.651 276.913 326.74 276.95C326.844 276.985 326.933 277.052 326.994 277.143C327.056 277.233 327.086 277.341 327.08 277.45C327.09 277.506 327.09 277.564 327.08 277.62C327.035 277.729 326.959 277.822 326.861 277.888C326.763 277.954 326.648 277.989 326.53 277.99H322.12C322.015 277.99 321.911 277.962 321.82 277.91C321.735 277.845 321.667 277.76 321.624 277.662C321.58 277.564 321.561 277.457 321.57 277.35C321.57 277.29 321.993 274.25 322.84 268.23C322.848 268.167 322.868 268.105 322.9 268.05C322.928 267.963 322.979 267.886 323.048 267.826C323.116 267.766 323.2 267.726 323.29 267.71Z" fill="#263238"/>
<path d="M265.53 292C265.53 292 264.27 304.71 267.35 304.65C272.73 304.56 293.35 299.26 294.8 303.23C296.25 307.2 289.53 310.92 289.53 310.92C289.53 310.92 296.11 312.16 292.87 315.59C289.63 319.02 278.58 335.92 271.47 336.27C261.25 336.77 248.08 333.32 248.08 333.32L253.46 296.08L265.53 292Z" fill="#FFBE9D"/>
<path d="M292.03 309.04C291.76 309.278 291.465 309.486 291.15 309.66C290.57 310.04 289.71 310.54 288.63 311.13C282.964 314.191 276.858 316.356 270.53 317.55C269.32 317.78 268.33 317.93 267.65 318C267.297 318.065 266.938 318.089 266.58 318.07C266.58 317.99 268.07 317.73 270.46 317.19C276.696 315.793 282.739 313.647 288.46 310.8C290.66 309.72 292.03 308.97 292.03 309.04Z" fill="#EB996E"/>
<path d="M291.46 318.01C291.255 318.3 291.013 318.562 290.74 318.79C290.038 319.466 289.3 320.104 288.53 320.7C283.428 324.677 277.381 327.261 270.98 328.2C270.019 328.348 269.051 328.442 268.08 328.48C267.725 328.524 267.365 328.524 267.01 328.48C267.01 328.39 268.52 328.28 270.92 327.85C277.204 326.721 283.15 324.18 288.31 320.42C290.28 318.97 291.4 317.94 291.46 318.01Z" fill="#EB996E"/>
<path d="M350.66 291.71C350.66 291.71 351.81 302.32 347.78 303.71C342.7 305.5 321.78 298.32 320.32 302.28C318.86 306.24 325.6 309.98 325.6 309.98C325.6 309.98 319.01 311.22 322.25 314.65C325.49 318.08 336.54 334.97 343.65 335.32C350.661 335.537 357.675 335.054 364.59 333.88L361.66 295.14L350.66 291.71Z" fill="#FFBE9D"/>
<path d="M323.1 308.13C323.1 308.06 324.47 308.8 326.66 309.89C332.381 312.737 338.424 314.883 344.66 316.28C347.06 316.82 348.56 317.07 348.54 317.16C348.182 317.179 347.823 317.155 347.47 317.09C346.79 317.01 345.8 316.86 344.59 316.64C338.265 315.434 332.161 313.269 326.49 310.22C325.41 309.63 324.55 309.13 323.97 308.75C323.654 308.582 323.362 308.373 323.1 308.13Z" fill="#EB996E"/>
<path d="M324.25 317.1C324.31 317.03 325.41 318.03 327.33 319.46C329.817 321.322 332.5 322.908 335.33 324.19C338.182 325.45 341.173 326.37 344.24 326.93C346.6 327.36 348.08 327.46 348.08 327.55C347.748 327.592 347.412 327.592 347.08 327.55C346.126 327.516 345.174 327.426 344.23 327.28C341.106 326.814 338.058 325.929 335.17 324.65C332.291 323.359 329.586 321.709 327.12 319.74C326.18 318.97 325.45 318.33 324.97 317.85C324.701 317.629 324.46 317.378 324.25 317.1Z" fill="#EB996E"/>
<path d="M140.55 243.071C137.667 243.417 134.753 243.417 131.87 243.071C134.753 242.724 137.667 242.724 140.55 243.071Z" fill="#455A64"/>
<path d="M145.16 229.271C145.507 232.692 145.507 236.139 145.16 239.561C144.813 236.139 144.813 232.692 145.16 229.271Z" fill="#455A64"/>
<path d="M150.03 242.74C152.913 242.394 155.827 242.394 158.71 242.74C155.827 243.087 152.913 243.087 150.03 242.74Z" fill="#455A64"/>
<path d="M145.46 256.54C145.113 253.116 145.113 249.665 145.46 246.24C145.807 249.665 145.807 253.116 145.46 256.54Z" fill="#455A64"/>
<path d="M152.48 250.621C152.36 250.701 151.57 249.801 150.72 248.621C150.133 247.943 149.681 247.159 149.39 246.311C149.51 246.231 150.29 247.121 151.15 248.311C151.736 248.99 152.187 249.773 152.48 250.621Z" fill="#455A64"/>
<path d="M152.03 234.97C152.14 235.06 151.51 235.97 150.63 237.03C149.75 238.09 148.94 238.84 148.83 238.75C148.72 238.66 149.35 237.75 150.23 236.69C151.11 235.63 151.96 234.88 152.03 234.97Z" fill="#455A64"/>
<path d="M142.12 238.96C142.02 239.06 141.26 238.48 140.41 237.66C139.56 236.84 138.97 236.09 139.07 235.99C139.17 235.89 139.94 236.47 140.78 237.29C141.62 238.11 142.22 238.85 142.12 238.96Z" fill="#455A64"/>
<path d="M141.73 245.85C141.84 245.94 141.29 246.85 140.48 247.85C139.67 248.85 138.94 249.64 138.82 249.55C139.095 248.805 139.521 248.124 140.07 247.55C140.87 246.53 141.62 245.76 141.73 245.85Z" fill="#455A64"/>
<path d="M422.27 194.06C420.352 194.407 418.388 194.407 416.47 194.06C418.388 193.713 420.352 193.713 422.27 194.06Z" fill="#455A64"/>
<path d="M425.36 186.16C425.707 188.108 425.707 190.102 425.36 192.05C425.013 190.102 425.013 188.108 425.36 186.16Z" fill="#455A64"/>
<path d="M428.64 193.87C430.561 193.524 432.529 193.524 434.45 193.87C432.529 194.217 430.561 194.217 428.64 193.87Z" fill="#455A64"/>
<path d="M425.56 201.76C425.213 199.812 425.213 197.818 425.56 195.87C425.907 197.818 425.907 199.812 425.56 201.76Z" fill="#455A64"/>
<path d="M430.25 198.38C430.14 198.47 429.59 197.99 429.02 197.31C428.45 196.63 428.08 196 428.19 195.91C428.3 195.82 428.85 196.29 429.42 196.97C429.99 197.65 430.36 198.29 430.25 198.38Z" fill="#455A64"/>
<path d="M430.03 189.421C430.13 189.521 429.73 190.091 429.14 190.691C428.55 191.291 427.99 191.691 427.89 191.581C427.79 191.471 428.18 190.921 428.77 190.321C429.36 189.721 429.88 189.321 430.03 189.421Z" fill="#455A64"/>
<path d="M423.32 191.701C423.23 191.811 422.7 191.521 422.14 191.061C421.58 190.601 421.19 190.121 421.28 190.011C421.37 189.901 421.91 190.191 422.47 190.651C423.03 191.111 423.42 191.621 423.32 191.701Z" fill="#455A64"/>
<path d="M423.03 195.62C423.14 195.72 422.79 196.27 422.25 196.86C421.71 197.45 421.19 197.86 421.09 197.76C420.99 197.66 421.33 197.1 421.87 196.51C422.41 195.92 422.96 195.55 423.03 195.62Z" fill="#455A64"/>
<path d="M463.28 187.311L463.56 188.001C464.064 189.194 465.02 190.14 466.22 190.631L466.96 190.931L466.25 191.221C465.647 191.465 465.098 191.828 464.638 192.289C464.178 192.749 463.814 193.297 463.57 193.901L463.37 194.401L463.07 193.771C462.519 192.631 461.548 191.749 460.36 191.311L459.71 191.081L460.56 190.671C461.626 190.154 462.466 189.265 462.92 188.171L463.28 187.311Z" fill="#455A64"/>
<path d="M184.25 199.9L184.53 200.58C184.776 201.172 185.137 201.709 185.592 202.161C186.047 202.612 186.586 202.969 187.18 203.21L187.93 203.51L187.21 203.8C186.609 204.047 186.063 204.411 185.605 204.871C185.146 205.331 184.784 205.878 184.54 206.48L184.34 206.98L184.04 206.35C183.492 205.21 182.519 204.331 181.33 203.9L180.68 203.66L181.53 203.25C182.592 202.728 183.43 201.84 183.89 200.75L184.25 199.9Z" fill="#455A64"/>
<path d="M148.84 295.54L148.98 295.88C149.232 296.478 149.71 296.953 150.31 297.2L150.68 297.35L150.32 297.49C150.019 297.613 149.745 297.795 149.515 298.025C149.285 298.255 149.103 298.529 148.98 298.83L148.88 299.08L148.73 298.77C148.457 298.2 147.973 297.759 147.38 297.54L147.05 297.42L147.48 297.22C148.01 296.957 148.428 296.514 148.66 295.97L148.84 295.54Z" fill="#455A64"/>
<path d="M391.27 157.7L391.55 158.38C391.796 158.972 392.157 159.509 392.612 159.96C393.067 160.412 393.606 160.769 394.2 161.01L394.95 161.31L394.23 161.6C393.629 161.847 393.083 162.211 392.625 162.671C392.166 163.131 391.804 163.678 391.56 164.28L391.36 164.78L391.06 164.15C390.512 163.01 389.539 162.131 388.35 161.7L387.7 161.46L388.55 161.05C389.614 160.531 390.453 159.642 390.91 158.55L391.27 157.7Z" fill="#455A64"/>
</g>
<defs>
<clipPath id="clip0_918_22">
<rect width="585.32" height="388.23" fill="white"/>
</clipPath>
</defs>
</svg>
