<svg id="Layer_1" data-name="Layer 1" xmlns="http://www.w3.org/2000/svg" viewBox="0 0 512 84.86"><defs><style>.cls-1{fill:#fff;}</style></defs><title>mikirinkode_logo</title><path class="cls-1" d="M64.77,74.62V29.05A15.5,15.5,0,0,0,57,15.64L45.89,9.21V54.78a15.49,15.49,0,0,0,7.74,13.41Z"/><path class="cls-1" d="M19.19,55.44V9.86L8.05,16.3A15.46,15.46,0,0,0,.31,29.7V75.28l11.14-6.44A15.46,15.46,0,0,0,19.19,55.44Z"/><path class="cls-1" d="M37.16,41.41l-4.68,2.71-4.69-2.71a6.51,6.51,0,0,1-3.25-5.63V16.63l4.68,2.71A6.48,6.48,0,0,1,32.48,25a6.49,6.49,0,0,1,3.25-5.63l4.68-2.71V35.78A6.51,6.51,0,0,1,37.16,41.41Z"/><path class="cls-1" d="M80.39,23.39a6.1,6.1,0,0,1-1.94-4.62,6.12,6.12,0,0,1,1.94-4.63,7.28,7.28,0,0,1,9.72,0,6.16,6.16,0,0,1,1.94,4.63,6.14,6.14,0,0,1-1.94,4.62,7.28,7.28,0,0,1-9.72,0ZM90.7,30.47V74.28H79.63V30.47Z"/><path class="cls-1" d="M127.55,74.28,112.69,55.62V74.28H101.62V15.76h11.07V49.05l14.7-18.58h14.4l-19.3,22,19.45,21.83Z"/><path class="cls-1" d="M148.55,23.39a6.1,6.1,0,0,1-1.94-4.62,6.12,6.12,0,0,1,1.94-4.63,7.28,7.28,0,0,1,9.72,0,6.16,6.16,0,0,1,1.94,4.63,6.14,6.14,0,0,1-1.94,4.62,7.28,7.28,0,0,1-9.72,0Zm10.32,7.08V74.28H147.8V30.47Z"/><path class="cls-1" d="M186.42,31.82a15.52,15.52,0,0,1,7.87-2V41.46h-2.92c-3.48,0-6.11.82-7.87,2.45s-2.65,4.49-2.65,8.54V74.28H169.78V30.47h11.07v6.8A15.46,15.46,0,0,1,186.42,31.82Z"/><path class="cls-1" d="M202.48,23.39a6.1,6.1,0,0,1-1.94-4.62,6.12,6.12,0,0,1,1.94-4.63,7.28,7.28,0,0,1,9.72,0,6.16,6.16,0,0,1,1.94,4.63,6.14,6.14,0,0,1-1.94,4.62,7.28,7.28,0,0,1-9.72,0Zm10.31,7.08V74.28H201.72V30.47Z"/><path class="cls-1" d="M260.63,34.78q4.83,4.95,4.83,13.8v25.7H254.39V50.08q0-5.22-2.61-8a9.25,9.25,0,0,0-7.12-2.81,9.45,9.45,0,0,0-7.23,2.81q-2.66,2.8-2.65,8v24.2H223.71V30.47h11.07v5.46a15.23,15.23,0,0,1,5.65-4.47A17.49,17.49,0,0,1,248,29.84Q255.81,29.84,260.63,34.78Z"/><path class="cls-1" d="M326,74.28,305.86,49.69V74.28H294.79V19.08h11.07V43.84L326,19.08h13.36L316.54,46.44l23.4,27.84Z"/><path class="cls-1" d="M355.28,72.18a20.21,20.21,0,0,1-7.94-7.94,23.76,23.76,0,0,1-2.89-11.86,23.32,23.32,0,0,1,3-11.87,20.54,20.54,0,0,1,8.1-7.94,24.79,24.79,0,0,1,22.93,0,20.63,20.63,0,0,1,8.11,7.94,23.32,23.32,0,0,1,3,11.87,22.83,22.83,0,0,1-3,11.86,21.11,21.11,0,0,1-8.22,7.94A24,24,0,0,1,366.67,75,23.11,23.11,0,0,1,355.28,72.18Zm17.05-8.3a10.68,10.68,0,0,0,4.23-4.39,14.82,14.82,0,0,0,1.58-7.11q0-6.26-3.28-9.61a10.81,10.81,0,0,0-8-3.36,10.55,10.55,0,0,0-7.95,3.36q-3.19,3.36-3.2,9.61T358.8,62a10.31,10.31,0,0,0,7.87,3.36A11.51,11.51,0,0,0,372.33,63.88Z"/><path class="cls-1" d="M397.47,40.44a19.12,19.12,0,0,1,17.44-10.68,18.58,18.58,0,0,1,8.14,1.86,16.29,16.29,0,0,1,6.17,4.94V15.76h11.23V74.28H429.22V67.79A14.92,14.92,0,0,1,423.45,73a18.07,18.07,0,0,1-8.62,2,18.78,18.78,0,0,1-10.12-2.85,19.8,19.8,0,0,1-7.24-8,25.72,25.72,0,0,1-2.65-11.9A25.27,25.27,0,0,1,397.47,40.44Zm30.25,5A11.18,11.18,0,0,0,423.45,41a11.43,11.43,0,0,0-5.78-1.54,11.1,11.1,0,0,0-9.92,5.89,13.73,13.73,0,0,0-1.62,6.84,14.24,14.24,0,0,0,1.62,6.92A11.64,11.64,0,0,0,412,63.68a10.8,10.8,0,0,0,5.65,1.58,11.43,11.43,0,0,0,5.78-1.54,11.18,11.18,0,0,0,4.27-4.43,14.22,14.22,0,0,0,1.58-6.91A14.24,14.24,0,0,0,427.72,45.46Z"/><path class="cls-1" d="M491.69,55.7h-32A10.91,10.91,0,0,0,463,63.13a10.26,10.26,0,0,0,7.2,2.69,9.05,9.05,0,0,0,8.78-5.3H490.9a20,20,0,0,1-7.28,10.4A21.26,21.26,0,0,1,470.42,75a22.88,22.88,0,0,1-11.35-2.81,19.75,19.75,0,0,1-7.83-7.94,24.37,24.37,0,0,1-2.81-11.86,24.71,24.71,0,0,1,2.77-11.94A19.3,19.3,0,0,1,459,32.53a24.86,24.86,0,0,1,22.65-.08,18.79,18.79,0,0,1,7.67,7.63A23.08,23.08,0,0,1,492,51.43,26.32,26.32,0,0,1,491.69,55.7Zm-11.15-7.44a8.81,8.81,0,0,0-3.09-6.84,10.92,10.92,0,0,0-7.35-2.57,10.05,10.05,0,0,0-6.92,2.49,11,11,0,0,0-3.44,6.92Z"/><path class="cls-1" d="M500,73a6.48,6.48,0,0,1,0-9.25A6.84,6.84,0,0,1,505,61.86a6.59,6.59,0,0,1,4.82,1.86,6.58,6.58,0,0,1,0,9.25A6.59,6.59,0,0,1,505,74.83,6.84,6.84,0,0,1,500,73Z"/></svg>